<?xml version="1.0" standalone="no"?>
<!DOCTYPE svg PUBLIC "-//W3C//DTD SVG 20010904//EN"
 "http://www.w3.org/TR/2001/REC-SVG-20010904/DTD/svg10.dtd">
<svg version="1.0" xmlns="http://www.w3.org/2000/svg"
 width="560.000000pt" height="560.000000pt" viewBox="0 0 560.000000 560.000000"
 preserveAspectRatio="xMidYMid meet">
<metadata>
Created by potrace 1.14, written by Peter Selinger 2001-2017
</metadata>
<g transform="translate(0.000000,560.000000) scale(0.100000,-0.100000)"
fill="#000000" stroke="none">
<path d="M3816 5459 c-88 -22 -161 -41 -163 -43 -2 -2 12 -61 31 -132 19 -70
33 -130 31 -132 -2 -3 -117 61 -256 142 l-252 146 -139 0 -140 0 -1076 -592
c-593 -325 -1082 -596 -1089 -602 -9 -8 -13 -74 -13 -241 l-1 -230 1011 -586
c556 -322 1015 -590 1021 -596 6 -6 8 -355 7 -921 l-3 -912 -812 471 -813 471
0 210 0 209 28 -20 c15 -11 58 -51 97 -90 38 -39 74 -71 80 -71 6 0 95 84 198
188 l187 187 -358 351 c-196 192 -392 383 -434 423 l-77 73 -431 -423 -431
-423 188 -188 c103 -103 192 -188 198 -188 6 0 51 41 100 90 49 50 93 90 97
90 5 0 8 -129 8 -286 l0 -287 66 -113 67 -113 1085 -632 c597 -348 1091 -632
1097 -632 6 0 102 51 213 113 l202 114 0 1153 0 1153 23 15 c123 80 1604 931
1611 925 4 -5 4 -412 0 -920 l-9 -912 -175 -104 c-96 -57 -180 -103 -186 -103
-7 -1 0 47 21 134 l32 135 -36 10 c-205 53 -485 120 -489 115 -11 -11 -300
-1150 -294 -1156 4 -3 270 -70 590 -149 414 -101 586 -140 591 -131 4 6 35
122 70 257 42 166 59 249 52 254 -6 3 -65 19 -131 34 -66 15 -120 30 -120 34
0 4 112 71 248 150 l248 144 67 114 68 114 -2 1128 c-1 620 -4 1173 -8 1230
l-6 104 -194 109 c-107 60 -199 109 -205 109 -5 0 -82 -42 -171 -94 -390 -228
-1845 -1067 -1859 -1072 -18 -7 -1637 925 -1633 939 3 10 1607 899 1622 899 8
1 361 -196 374 -208 10 -9 -13 -17 -141 -51 -73 -19 -135 -37 -137 -39 -2 -2
27 -118 65 -259 55 -208 71 -254 83 -250 9 2 272 70 585 149 312 80 569 146
571 148 5 5 -239 927 -247 932 -6 4 -183 130 -213 152 l-30 22 -159 -39z"/>
</g>
</svg>
